<svg width="320" height="220" viewBox="0 0 320 220" fill="none" xmlns="http://www.w3.org/2000/svg">
  <defs>
    <linearGradient id="bg3" x1="0" y1="0" x2="1" y2="1">
      <stop offset="0" stop-color="#FFF0F5" />
      <stop offset="1" stop-color="#E9E5FF" />
    </linearGradient>
    <linearGradient id="sun" x1="0" y1="0" x2="1" y2="1">
      <stop offset="0" stop-color="#FFD08A" />
      <stop offset="1" stop-color="#FF9B8A" />
    </linearGradient>
    <linearGradient id="wave" x1="0" y1="0" x2="1" y2="0">
      <stop offset="0" stop-color="#9AD7FF" />
      <stop offset="1" stop-color="#6BBEE8" />
    </linearGradient>
  </defs>
  <rect x="10" y="10" width="300" height="200" rx="36" fill="url(#bg3)" />
  <circle cx="90" cy="70" r="26" fill="url(#sun)" />
  <path
    d="M40 150C70 135 120 130 160 138C200 146 250 144 280 136V180H40V150Z"
    fill="url(#wave)"
  />
  <path
    d="M220 75L248 82C254 84 257 91 254 97L244 117C241 123 234 125 228 123L197 114L220 75Z"
    fill="#FFFFFF"
  />
  <path
    d="M206 100L223 82L214 104L206 100Z"
    fill="#D9E6FF"
  />
  <circle cx="225" cy="70" r="4" fill="#FFFFFF" />
  <text
    x="160"
    y="185"
    text-anchor="middle"
    font-family="Quicksand, system-ui"
    font-weight="600"
    font-size="16"
    fill="#5A386E"
  >
    0;5=L:>5 ?CB5H5AB285 242>Q<
  </text>
</svg>

